<mxfile host="app.diagrams.net" modified="2023-08-02T06:54:34.077Z" agent="Mozilla/5.0 (Windows NT 10.0; Win64; x64) AppleWebKit/537.36 (KHTML, like Gecko) Chrome/112.0.0.0 Safari/537.36" version="21.6.6" etag="r1Gm0Crm5OMcqxQYTmMD" type="github">
  <diagram name="第 1 页" id="lcB3Py8_bxgnRQIrlnSY">
    <mxGraphModel>
      <root>
        <mxCell id="0" />
        <mxCell id="1" parent="0" />
      </root>
    </mxGraphModel>
  </diagram>
</mxfile>
